# xmcd
#
# Track frame offsets: 
#        150
#        16675
#        26930
#        42877
#        57385
#        84732
#        95450
#        113675
#        126187
#        135902
#        148187
#        159160
#        175912
#        190065
#
# Disc length: 2686 seconds
#
# Revision: 1
# Processed by: cddbd v1.5.2PL0 Copyright (c) Steve Scherf et al.
# Submitted via: ExactAudioCopy v0.99pb3
#
DISCID=b30a7c0e
DTITLE=Various Artist - The Vintage Guitar Series
DYEAR=1992
DGENRE=Jazz
TTITLE0=Angelo Debarre Trio - La Gitane
TTITLE1=Arbat Ensemble - Guene Roma
TTITLE2=Stochelo Rosenberg Trio - Bossa Dorado
TTITLE3=Ferret (Matelo) feat Boulou Ferré - Ne Te Presse Pas
TTITLE4=Hot Club De Norvege - Fido
TTITLE5=Ivanovitch (Petro) feat Angelo Debarre - Folklore Roumain
TTITLE6=Fapy Lafertin Quintet - Wonderful You
TTITLE7=Robert Norman String Swing - Rythm Is Our Business
TTITLE8=Robert Norman Quartet - Tenderly
TTITLE9=Ferret (Baro) feat Matelo Ferret and Jacques Montagne - Swing Va
TTITLE9=lse
TTITLE10=Jon Larsen Trio - Hot Licks !
TTITLE11=Reinhardt (Joseph) - There'll Never Be Another You
TTITLE12=Raya feat Petro Ivanovitch - Belazneznaja Vicnja
TTITLE13=Hot Club De Norvege feat Ivar Brodahl - Daphne
EXTD=
EXTT0=
EXTT1=
EXTT2=
EXTT3=
EXTT4=
EXTT5=
EXTT6=
EXTT7=
EXTT8=
EXTT9=
EXTT10=
EXTT11=
EXTT12=
EXTT13=
PLAYORDER=
